HIERARCHY
ROOT Hips
{
	OFFSET	0.00	0.00	0.00
	CHANNELS 6 Xposition Yposition Zposition Zrotation Xrotation Yrotation
	JOINT LeftUpLeg
	{
		OFFSET	 0.126116	-0.014019	-0.065224
		CHANNELS 3 Zrotation Xrotation Yrotation
		JOINT LeftLeg
		{
			OFFSET	 0.000000	 0.000000	 0.569914
			CHANNELS 3 Zrotation Xrotation Yrotation
			JOINT LeftFoot
			{
				OFFSET	 0.000000	 0.000000	 0.544423
				CHANNELS 3 Zrotation Xrotation Yrotation
				JOINT LeftToeBase
				{
					OFFSET	 0.000000	 0.000000	 0.207117
					CHANNELS 3 Zrotation Xrotation Yrotation
					End Site
					{
						OFFSET	 0.000000	 0.000000	 0.207117
					}
				}
			}
		}
	}
	JOINT RightUpLeg
	{
		OFFSET	-0.124023	-0.008373	-0.065224
		CHANNELS 3 Zrotation Xrotation Yrotation
		JOINT RightLeg
		{
			OFFSET	 0.000000	 0.000000	 0.570047
			CHANNELS 3 Zrotation Xrotation Yrotation
			JOINT RightFoot
			{
				OFFSET	 0.000000	 0.000000	 0.544354
				CHANNELS 3 Zrotation Xrotation Yrotation
				JOINT RightToeBase
				{
					OFFSET	 0.000000	 0.000000	 0.207540
					CHANNELS 3 Zrotation Xrotation Yrotation
					End Site
					{
						OFFSET	 0.000000	 0.000000	 0.207540
					}
				}
			}
		}
	}
	JOINT Spine
	{
		OFFSET	 0.000184	-0.007763	 0.117403
		CHANNELS 3 Zrotation Xrotation Yrotation
		JOINT Spine1
		{
			OFFSET	 0.000000	 0.000000	 0.137269
			CHANNELS 3 Zrotation Xrotation Yrotation
			JOINT Spine2
			{
				OFFSET	 0.000000	 0.000000	 0.156879
				CHANNELS 3 Zrotation Xrotation Yrotation
				JOINT LeftShoulder
				{
					OFFSET	 0.080501	-0.002496	 0.160144
					CHANNELS 3 Zrotation Xrotation Yrotation
					JOINT LeftArm
					{
						OFFSET	 0.000000	 0.000000	 0.164363
						CHANNELS 3 Zrotation Xrotation Yrotation
						JOINT LeftForeArm
						{
							OFFSET	 0.000000	 0.000000	 0.364576
							CHANNELS 3 Zrotation Xrotation Yrotation
							JOINT LeftHand
							{
								OFFSET	 0.000000	 0.000000	 0.360812
								CHANNELS 3 Zrotation Xrotation Yrotation
								JOINT LeftHandIndex1
								{
									OFFSET	 0.000000	 0.000000	 0.086006
									CHANNELS 3 Zrotation Xrotation Yrotation
									JOINT LeftHandIndex2
									{
										OFFSET	 0.000000	 0.000000	 0.047236
										CHANNELS 3 Zrotation Xrotation Yrotation
										JOINT LeftHandIndex3
										{
											OFFSET	-0.004284	-0.000551	 0.038166
											CHANNELS 3 Zrotation Xrotation Yrotation
											End Site
											{
												OFFSET	-0.004284	-0.000551	 0.038166
											}
										}
									}
								}
							}
						}
					}
				}
				JOINT Neck
				{
					OFFSET	 0.000000	 0.000000	 0.176489
					CHANNELS 3 Zrotation Xrotation Yrotation
					JOINT Head
					{
						OFFSET	 0.000000	-0.001747	 0.077940
						CHANNELS 3 Zrotation Xrotation Yrotation
						End Site
						{
							OFFSET	 0.000000	-0.001747	 0.077940
						}
					}
				}
				JOINT RightShoulder
				{
					OFFSET	-0.080363	 0.000306	 0.159706
					CHANNELS 3 Zrotation Xrotation Yrotation
					JOINT RightArm
					{
						OFFSET	 0.000000	 0.000000	 0.164196
						CHANNELS 3 Zrotation Xrotation Yrotation
						JOINT RightForeArm
						{
							OFFSET	 0.000000	 0.000000	 0.365611
							CHANNELS 3 Zrotation Xrotation Yrotation
							JOINT RightHand
							{
								OFFSET	 0.000000	 0.000000	 0.360648
								CHANNELS 3 Zrotation Xrotation Yrotation
								JOINT RightHandIndex1
								{
									OFFSET	 0.000000	 0.000000	 0.069977
									CHANNELS 3 Zrotation Xrotation Yrotation
									JOINT RightHandIndex2
									{
										OFFSET	 0.000000	 0.000000	 0.052305
										CHANNELS 3 Zrotation Xrotation Yrotation
										JOINT RightHandIndex3
										{
											OFFSET	 0.009002	-0.000782	 0.042196
											CHANNELS 3 Zrotation Xrotation Yrotation
											End Site
											{
												OFFSET	 0.009002	-0.000782	 0.042196
											}
										}
									}
								}
							}
						}
					}
				}
			}
		}
	}
}
MOTION
Frames:    4
Frame Time: 0.03333334
-0.077808	 2.885553	 0.802872	-7.683382	-2.397927	-1.091029	 7.220753	 19.742490	-176.734100	-3.572084	-11.633920	 1.461140	 3.402583	 84.208600	-0.107701	-2.311112	 38.803630	-0.244012	 4.686625	-35.509800	-178.087200	 1.995419	-45.348360	 5.815102	 104.094600	 89.876460	-98.055980	 2.373351	 30.662010	 0.049975	-2.509471	 3.602121	 2.378711	-3.680722	-1.376841	 0.660035	-4.230586	-3.792883	-0.921737	-91.776180	 78.527420	-180.000000	 35.552230	 60.654450	-53.473070	-8.943472	-4.955871	-38.675260	 3.903860	-2.095990	-5.368746	-3.812334	 37.924440	-2.927599	-2.450526	 36.184240	 0.754587	-1.378229	 35.397820	-2.634230	 1.211486	 2.144656	-4.943780	 0.232310	-9.161877	 3.166466	 89.782120	 78.203870	 180.000000	-38.267340	 71.817150	 35.811390	 0.025640	-6.856621	 25.620660	-13.433160	-3.247805	 9.564486	 6.437017	 35.671460	-0.771858	 2.830251	 35.756010	-7.813440	-2.350882	 35.473990	 5.254307
-0.089426	 2.815700	 0.800440	-7.047524	-1.905133	-1.308918	 7.470304	 22.612380	-177.207900	-3.374022	-11.622920	 1.546832	 4.297424	 84.346290	-0.611496	-2.266570	 42.541510	-0.345999	 5.207496	-36.071430	-177.471500	-0.196760	-38.647120	 3.787577	 151.845600	 89.433530	-146.625600	 2.361916	 32.557330	 0.092981	-2.652370	 3.270394	 2.130356	-3.772187	-1.568707	 0.536277	-4.258386	-3.970828	-0.984646	-91.776180	 78.527400	 180.000000	 36.474660	 60.619900	-54.835520	-9.081169	-4.980705	-40.031310	 3.744223	-2.115491	-5.365343	-3.812334	 37.924440	-2.927599	-2.450526	 36.184240	 0.754587	-1.378229	 35.397820	-2.634230	 1.229296	 2.127060	-5.002316	 0.285883	-9.383983	 3.842462	 89.782120	 78.203870	 180.000000	-36.602390	 72.802960	 33.876110	 0.313213	-6.717043	 24.351820	-14.009390	-3.267616	 9.550384	 6.437017	 35.671460	-0.771858	 2.830251	 35.756010	-7.813440	-2.350882	 35.473990	 5.254307
-0.104361	 2.735033	 0.797713	-6.311518	-2.028183	-1.321665	 7.978738	 25.994440	-178.584000	-2.455677	-11.595830	 1.740010	 5.481784	 82.493840	-0.757561	-2.203375	 46.629840	-0.470175	 4.867144	-35.434560	-177.538300	 0.605911	-38.189540	 4.083424	 130.264500	 89.666030	-124.583100	 2.368120	 31.569920	 0.070403	-2.857273	 3.135668	 1.879849	-3.872485	-1.642654	 0.262927	-4.164128	-3.927523	-1.082939	-91.776180	 78.527400	 180.000000	 38.283640	 61.500080	-55.907240	-9.140826	-4.952519	-39.636010	 3.774652	-2.119032	-5.364603	-3.812334	 37.924440	-2.927599	-2.450526	 36.184240	 0.754587	-1.378229	 35.397820	-2.634230	 1.326411	 2.152424	-5.071119	 0.395309	-9.469465	 4.470945	 89.782100	 78.203870	-180.000000	-35.257470	 73.509320	 32.397240	 0.232909	-6.547576	 22.921750	-14.711450	-3.292568	 9.531269	 6.437017	 35.671460	-0.771858	 2.830251	 35.756010	-7.813440	-2.350882	 35.473990	 5.254307
-0.122986	 2.646101	 0.795039	-5.441736	-2.210464	-1.213285	 8.746899	 29.417630	 179.206500	-1.253952	-11.565090	 1.936358	 5.862376	 77.473960	 0.162237	-2.125597	 50.510440	-0.604256	 4.400206	-33.382000	-178.284400	 2.747260	-41.157600	 5.680435	 9.259819	 88.920980	-2.396976	 2.380972	 29.188170	 0.017385	-3.175629	 2.832020	 1.737365	-4.028360	-1.652344	-0.088934	-3.947171	-3.583606	-1.258838	-91.776180	 78.527380	-180.000000	 40.620380	 63.045210	-56.038000	-8.991457	-4.817618	-37.651510	 3.888422	-2.103495	-5.367303	-3.812334	 37.924440	-2.927599	-2.450526	 36.184240	 0.754587	-1.378229	 35.397820	-2.634230	 1.530594	 2.675438	-5.124517	 0.555582	-9.659535	 4.899800	 89.782120	 78.203930	 180.000000	-33.473590	 73.985100	 30.214910	 0.083032	-6.374961	 21.761370	-15.278580	-3.312490	 9.514112	 6.437017	 35.671460	-0.771858	 2.830251	 35.756010	-7.813440	-2.350882	 35.473990	 5.254307
